<svg width="125" height="124" xmlns="http://www.w3.org/2000/svg" xmlns:xlink="http://www.w3.org/1999/xlink" xml:space="preserve" overflow="hidden"><defs><clipPath id="clip0"><rect x="235" y="182" width="125" height="124"/></clipPath></defs><g clip-path="url(#clip0)" transform="translate(-235 -182)"><path d="M62 56.8333C55.5417 56.8333 50.375 51.6667 50.375 45.2083 50.375 38.75 55.5417 33.5833 62 33.5833 68.4583 33.5833 73.625 38.75 73.625 45.2083 73.625 51.6667 68.4583 56.8333 62 56.8333ZM62 18.0833C53.0875 18.0833 44.6917 22.475 39.6542 29.9667 34.6167 37.3292 33.5833 46.7583 36.8125 55.1542L49.0833 82.2792 59.675 104.496C60.0625 105.4 60.9667 105.917 62 105.917 63.0333 105.917 63.9375 105.4 64.325 104.496L74.9167 82.2792 87.1875 55.1542C90.4167 46.7583 89.3833 37.3292 84.3458 29.9667 79.3083 22.475 70.9125 18.0833 62 18.0833Z" fill="#07403F" transform="matrix(1.00806 0 0 1 235 182)"/></g></svg>