<svg width="124" height="124" xmlns="http://www.w3.org/2000/svg" xmlns:xlink="http://www.w3.org/1999/xlink" xml:space="preserve" overflow="hidden"><defs><clipPath id="clip0"><rect x="432" y="194" width="124" height="124"/></clipPath></defs><g clip-path="url(#clip0)" transform="translate(-432 -194)"><path d="M549.025 240.887 542.308 238.433 542.308 224.354 549.025 221.512 503.558 204.721 448.275 224.096C442.979 226.679 442.85 233.783 442.85 239.596 442.85 241.533 443.108 243.471 443.496 245.279 439.104 248.121 438.975 254.708 438.975 260.263 438.975 264.783 440.008 268.917 442.85 271.5 442.204 273.696 442.592 276.408 442.592 279.638 442.592 285.45 444.142 290.746 449.308 292.554L485.217 307.408 548.767 281.058 542.05 278.604 542.05 264.396 548.767 261.554 538.433 257.679 538.433 245.279 549.025 240.887ZM449.825 233.137 485.733 247.217 537.271 226.421 537.271 237.529 485.733 258.971 449.825 244.762 449.825 233.137ZM537.013 277.7 485.475 299.013 449.438 284.804 449.438 274.729 481.6 287.904 537.142 265.946 537.013 277.7ZM533.396 258.325 481.858 279.638 445.95 265.429 445.95 253.804 482.892 268.529 533.525 247.346 533.525 258.325Z" fill="#07403F"/></g></svg>